<svg width="809" height="939" viewBox="0 0 809 939" fill="none" xmlns="http://www.w3.org/2000/svg">
<circle cx="4.05273" cy="4.05273" r="4.05273" transform="matrix(1 0 0 -1 375 246.795)" fill="#2768CA"/>
<circle cx="4.05273" cy="4.05273" r="4.05273" transform="matrix(1 0 0 -1 609.355 229.739)" fill="#2768CA"/>
<ellipse cx="11.7669" cy="11.5374" rx="11.7669" ry="11.5374" transform="matrix(1 0 0 -1 713.683 151.446)" fill="#2768CA"/>
<ellipse cx="11.7669" cy="11.5374" rx="11.7669" ry="11.5374" transform="matrix(1 0 0 -1 763.82 521.647)" fill="#2768CA"/>
<circle cx="4.55932" cy="4.55932" r="4.55932" transform="matrix(1 0 0 -1 805.817 714.316)" fill="#2768CA"/>
<circle cx="7.09228" cy="7.09228" r="7.09228" transform="matrix(1 0 0 -1 541.854 48.1805)" fill="#2768CA"/>
<circle cx="7.09228" cy="7.09228" r="7.09228" transform="matrix(1 0 0 -1 718.869 939)" fill="#2768CA"/>
<circle cx="3.54614" cy="3.54614" r="3.54614" transform="matrix(1 0 0 -1 796.599 499.61)" fill="#2768CA"/>
<circle cx="6.0791" cy="6.0791" r="6.0791" transform="matrix(1 0 0 -1 631.886 295.974)" fill="#2768CA"/>
<circle cx="6.0791" cy="6.0791" r="6.0791" transform="matrix(1 0 0 -1 543.89 485.589)" fill="#2768CA"/>
<circle cx="4.05273" cy="4.05273" r="4.05273" transform="matrix(1 0 0 -1 500.896 271.876)" fill="#2768CA"/>
<circle cx="4.05273" cy="4.05273" r="4.05273" transform="matrix(-1 0 0 1 529 692.205)" fill="#2768CA"/>
<circle cx="4.05273" cy="4.05273" r="4.05273" transform="matrix(-1 0 0 1 294.645 709.261)" fill="#2768CA"/>
<circle cx="4.05273" cy="4.05273" r="4.05273" transform="matrix(-1 0 0 1 8.10547 313.979)" fill="#2768CA"/>
<ellipse cx="11.7669" cy="11.5374" rx="11.7669" ry="11.5374" transform="matrix(-1 0 0 1 190.317 787.554)" fill="#2768CA"/>
<circle cx="10.1318" cy="10.1318" r="10.1318" transform="matrix(-1 0 0 1 91.9884 904.736)" fill="#2768CA"/>
<ellipse cx="11.7669" cy="11.5374" rx="11.7669" ry="11.5374" transform="matrix(-1 0 0 1 140.18 417.353)" fill="#2768CA"/>
<circle cx="4.55932" cy="4.55932" r="4.55932" transform="matrix(-1 0 0 1 98.1831 224.684)" fill="#2768CA"/>
<circle cx="7.09228" cy="7.09228" r="7.09228" transform="matrix(-1 0 0 1 53.1362 666.091)" fill="#2768CA"/>
<circle cx="7.09228" cy="7.09228" r="7.09228" transform="matrix(-1 0 0 1 362.146 890.82)" fill="#2768CA"/>
<circle cx="7.09228" cy="7.09228" r="7.09228" transform="matrix(-1 0 0 1 93.0415 104.269)" fill="#2768CA"/>
<circle cx="7.09228" cy="7.09228" r="7.09228" transform="matrix(-1 0 0 1 185.131 0)" fill="#2768CA"/>
<circle cx="3.54614" cy="3.54614" r="3.54614" transform="matrix(-1 0 0 1 107.401 439.39)" fill="#2768CA"/>
<circle cx="4.05273" cy="4.05273" r="4.05273" transform="matrix(-1 0 0 1 57.2594 531.685)" fill="#2768CA"/>
<circle cx="6.0791" cy="6.0791" r="6.0791" transform="matrix(-1 0 0 1 272.114 643.026)" fill="#2768CA"/>
<circle cx="6.0791" cy="6.0791" r="6.0791" transform="matrix(-1 0 0 1 360.11 453.411)" fill="#2768CA"/>
<circle cx="4.05273" cy="4.05273" r="4.05273" transform="matrix(-1 0 0 1 403.104 667.124)" fill="#2768CA"/>
<circle cx="379.5" cy="362.5" r="333.5" fill="#7AA6C8" fill-opacity="0.19"/>
</svg>
