<svg width="29" height="23" viewBox="0 0 29 23" fill="none" xmlns="http://www.w3.org/2000/svg">
<path d="M28.5285 3.065V19.865C28.5285 20.635 28.2543 21.2942 27.706 21.8425C27.1576 22.3908 26.4985 22.665 25.7285 22.665H3.32844C2.55844 22.665 1.89928 22.3908 1.35094 21.8425C0.802609 21.2942 0.528442 20.635 0.528442 19.865V3.065C0.528442 2.295 0.802609 1.63583 1.35094 1.0875C1.89928 0.539166 2.55844 0.264999 3.32844 0.264999H25.7285C26.4985 0.264999 27.1576 0.539166 27.706 1.0875C28.2543 1.63583 28.5285 2.295 28.5285 3.065ZM3.32844 5.865H25.7285V3.065H3.32844V5.865ZM3.32844 11.465V19.865H25.7285V11.465H3.32844Z" fill="#2768CA"/>
</svg>
