<svg width="29" height="27" viewBox="0 0 29 27" fill="none" xmlns="http://www.w3.org/2000/svg">
<path d="M13.8022 15.4634C14.0979 15.1779 14.6072 15.1779 14.9029 15.4634L19.1194 19.5341C19.897 20.2848 20.9319 20.6971 22.0271 20.6971H22.854L17.5368 25.8304C15.8776 27.39 13.1834 27.39 11.5242 25.8304L6.18512 20.6813H6.69439C7.78958 20.6813 8.82454 20.2689 9.60213 19.5182L13.8022 15.4634ZM14.9029 11.5724C14.5524 11.8632 14.1034 11.8685 13.8022 11.5724L9.60213 7.51761C8.82454 6.71933 7.78958 6.35456 6.69439 6.35456H6.18512L11.5187 1.20541C13.1834 -0.401721 15.8776 -0.401721 17.5368 1.20541L22.8595 6.3387H22.0271C20.9319 6.3387 19.897 6.75105 19.1194 7.50175L14.9029 11.5724ZM6.69439 7.54404C7.45007 7.54404 8.14552 7.84009 8.72597 8.35818L12.926 12.413C13.3203 12.7461 13.8351 12.984 14.3553 12.984C14.87 12.984 15.3848 12.7461 15.779 12.413L19.9955 8.34232C20.5322 7.82952 21.2714 7.53347 22.0271 7.53347H24.0915L27.284 10.6156C28.9433 12.2174 28.9433 14.8184 27.284 16.4203L24.0915 19.5023H22.0271C21.2714 19.5023 20.5322 19.2063 19.9955 18.6882L15.779 14.6175C15.0179 13.8827 13.6872 13.8827 12.926 14.6228L8.72597 18.6723C8.14552 19.1904 7.45007 19.4865 6.69439 19.4865H4.95303L1.77696 16.4203C0.112269 14.8184 0.112269 12.2174 1.77696 10.6156L4.95303 7.54404H6.69439Z" fill="#2768CA"/>
</svg>
