<svg width="320" height="352" viewBox="0 0 320 352" fill="none" xmlns="http://www.w3.org/2000/svg">
<path fill-rule="evenodd" clip-rule="evenodd" d="M319.735 348.557L-0.264841 348.557L-3.26495 200.557C-3.26495 200.557 -25.7651 104.557 35.2265 81.2913C76.8267 59.025 116.796 109.343 162.735 106.556C217.775 103.217 274.815 37.0103 320.235 64.5563L319.735 348.557Z" fill="#7AA6C8"/>
<path fill-rule="evenodd" clip-rule="evenodd" d="M319.735 348.555L-0.264576 348.556L-0.264386 168.055C-0.264386 168.055 52.9232 200.617 98.8624 197.83C153.902 194.49 209.735 131.503 255.736 151.556C294.735 168.556 293.735 170.556 319.735 178.056C319.735 178.056 319.976 211.179 319.735 233.055L319.735 348.555Z" fill="#2768CA"/>
<path fill-rule="evenodd" clip-rule="evenodd" d="M319.735 348.557L-0.265328 348.557C-0.265328 348.557 -0.265328 348.557 -0.265318 233.557C45.1062 208.578 108.774 268.769 159.766 265.506C220.86 261.597 268.085 177.479 319.735 208.057L319.735 348.557Z" fill="#0750AF" fill-opacity="0.63"/>
</svg>
