<svg width="35" height="32" viewBox="0 0 35 32" fill="none" xmlns="http://www.w3.org/2000/svg">
<path d="M19.7432 1.33675L34.653 27.9898C34.8803 28.3962 35 28.8572 35 29.3265C35 29.7958 34.8803 30.2568 34.653 30.6632C34.4256 31.0696 34.0987 31.4071 33.7049 31.6418C33.3111 31.8764 32.8645 32 32.4098 32H2.59023C2.13555 32 1.68887 31.8764 1.29511 31.6418C0.901341 31.4071 0.574356 31.0696 0.347018 30.6632C0.119679 30.2568 -2.88775e-06 29.7958 0 29.3265C2.88785e-06 28.8572 0.119691 28.3962 0.347034 27.9898L15.2568 1.33675C16.2532 -0.445583 18.7451 -0.445583 19.7432 1.33675ZM17.5 22.461C17.042 22.461 16.6028 22.6487 16.2789 22.983C15.9551 23.3172 15.7731 23.7706 15.7731 24.2433C15.7731 24.716 15.9551 25.1693 16.2789 25.5036C16.6028 25.8378 17.042 26.0256 17.5 26.0256C17.958 26.0256 18.3972 25.8378 18.7211 25.5036C19.0449 25.1693 19.2269 24.716 19.2269 24.2433C19.2269 23.7706 19.0449 23.3172 18.7211 22.983C18.3972 22.6487 17.958 22.461 17.5 22.461ZM17.5 9.98463C17.077 9.98469 16.6688 10.145 16.3527 10.4351C16.0366 10.7251 15.8347 11.1249 15.7852 11.5584L15.7731 11.767V18.8963C15.7736 19.3506 15.9422 19.7875 16.2443 20.1178C16.5465 20.4482 16.9594 20.647 17.3988 20.6736C17.8382 20.7002 18.2708 20.5527 18.6084 20.2611C18.9459 19.9695 19.1628 19.5559 19.2148 19.1048L19.2269 18.8963V11.767C19.2269 11.2943 19.0449 10.8409 18.7211 10.5067C18.3972 10.1724 17.958 9.98463 17.5 9.98463Z" fill="#FF0A0A"/>
</svg>
