<svg width="17" height="17" viewBox="0 0 17 17" fill="none" xmlns="http://www.w3.org/2000/svg">
<g opacity="0.9">
<path d="M8.49991 1C9.67789 1.00009 10.8393 1.27766 11.89 1.81022C12.9407 2.34278 13.8512 3.11535 14.5478 4.06535C15.2443 5.01535 15.7073 6.11606 15.8991 7.27831C16.091 8.44056 16.0064 9.63167 15.6522 10.7551C15.298 11.8786 14.6842 12.9028 13.8604 13.7449C13.0366 14.5869 12.0261 15.2231 10.9106 15.6018C9.79518 15.9805 8.60621 16.0912 7.44004 15.9248C6.27386 15.7584 5.16327 15.3197 4.19824 14.6442L8.49991 8.5V1Z" fill="#8FBFFA"/>
<path d="M1 8.5C1 9.48491 1.19399 10.4602 1.5709 11.3701C1.94781 12.2801 2.50026 13.1069 3.1967 13.8033C3.89314 14.4997 4.71993 15.0522 5.62987 15.4291C6.53982 15.806 7.51509 16 8.5 16C9.48491 16 10.4602 15.806 11.3701 15.4291C12.2801 15.0522 13.1069 14.4997 13.8033 13.8033C14.4997 13.1069 15.0522 12.2801 15.4291 11.3701C15.806 10.4602 16 9.48491 16 8.5C16 6.51088 15.2098 4.60322 13.8033 3.1967C12.3968 1.79018 10.4891 1 8.5 1C6.51088 1 4.60322 1.79018 3.1967 3.1967C1.79018 4.60322 1 6.51088 1 8.5Z" stroke="#2859C5" stroke-width="1.4" stroke-linecap="round" stroke-linejoin="round"/>
</g>
</svg>
