<svg width="17" height="17" viewBox="0 0 17 17" fill="none" xmlns="http://www.w3.org/2000/svg">
<path d="M8.5 0C3.80573 0 0 3.80573 0 8.5C0 13.1943 3.80573 17 8.5 17C13.1943 17 17 13.1943 17 8.5C17 3.80573 13.1943 0 8.5 0Z" fill="#8FBFFA"/>
<path fill-rule="evenodd" clip-rule="evenodd" d="M5.89041 11.7111C6.05777 12.8701 6.31201 13.9079 6.62784 14.762C6.92213 15.5576 7.25873 16.1647 7.60439 16.5621C7.78799 16.7729 7.9595 16.9097 8.11628 16.9917C7.5076 16.9648 6.90358 16.8725 6.31466 16.7163C6.03133 16.269 5.78124 15.7401 5.56477 15.1549C5.20324 14.1769 4.92255 13.0039 4.74613 11.7111H0.627593C0.477099 11.3426 0.352877 10.9638 0.255859 10.5778H4.6207C4.5624 9.88671 4.53341 9.1935 4.53381 8.49999C4.53381 7.78939 4.56404 7.0939 4.62108 6.42221H0.256237C0.354082 6.0331 0.47837 5.65457 0.62797 5.28888H4.74688C4.92406 3.99612 5.2055 2.82312 5.56779 1.84506C5.78464 1.2595 6.0351 0.730234 6.31881 0.282567C6.90716 0.126908 7.51054 0.0349576 8.11855 0.00830078C7.96253 0.0902786 7.79139 0.227034 7.60779 0.437834C7.2625 0.835634 6.92515 1.44272 6.63048 2.23832C6.31428 3.09286 6.05928 4.13023 5.89117 5.28888H11.1094C10.9413 4.13023 10.6863 3.09286 10.3701 2.23832C10.0754 1.44272 9.73846 0.835634 9.39279 0.437834C9.20957 0.227034 9.03844 0.0902786 8.88204 0.00830078C9.50159 0.0358786 10.1038 0.12919 10.6818 0.282567C10.9655 0.730234 11.2163 1.25912 11.4332 1.84506C11.7951 2.82312 12.0765 3.99612 12.2537 5.28888H16.3734C16.5226 5.65457 16.6473 6.0331 16.7451 6.42221H12.3795C12.4369 7.0939 12.4671 7.78939 12.4671 8.49999C12.4671 9.21059 12.4369 9.90646 12.3799 10.5778H16.7447C16.6477 10.9638 16.5235 11.3426 16.373 11.7111H12.2548C12.078 13.0039 11.7977 14.1769 11.4362 15.1549C11.2197 15.7401 10.9693 16.2694 10.6859 16.7163C10.097 16.8725 9.49299 16.9648 8.8843 16.9917C9.04146 16.9093 9.21297 16.7726 9.39619 16.5621C9.74186 16.1647 10.0788 15.5576 10.3731 14.762C10.6889 13.9079 10.9428 12.8701 11.1102 11.7111H5.89041ZM11.3338 8.49999C11.3338 7.78448 11.3017 7.08861 11.2416 6.42221H5.75895C5.69736 7.11309 5.66673 7.80637 5.66715 8.49999C5.66674 9.1936 5.69725 9.88688 5.75857 10.5778H11.2424C11.3037 9.88688 11.3342 9.1936 11.3338 8.49999Z" fill="#2859C5"/>
</svg>
