<svg width="19" height="19" viewBox="0 0 19 19" fill="none" xmlns="http://www.w3.org/2000/svg">
<path d="M3.63276 12.7817C3.2448 12.7817 2.86437 12.887 2.53335 13.0859C2.20234 13.2849 1.93357 13.5698 1.75667 13.9093L0.154613 16.988C0.0448448 17.1986 -0.00805219 17.4335 0.000992509 17.67C0.0100372 17.9065 0.0807204 18.1368 0.206266 18.3388C0.331812 18.5407 0.508011 18.7076 0.717973 18.8234C0.927935 18.9391 1.16462 18.9999 1.40534 18.9999H17.5945C17.8361 18.9999 18.0735 18.9388 18.284 18.8223C18.4945 18.7058 18.6709 18.5379 18.7962 18.3349C18.9215 18.1318 18.9914 17.9004 18.9993 17.6631C19.0071 17.4257 18.9526 17.1903 18.841 16.9797L17.2067 13.8955C17.0284 13.5596 16.7599 13.2782 16.4304 13.0818C16.1009 12.8855 15.7229 12.7817 15.3376 12.7817H3.63276Z" fill="#2859C5"/>
<path fill-rule="evenodd" clip-rule="evenodd" d="M9.42322 1.91199e-07C7.72023 -0.000402013 6.08036 0.633766 4.83391 1.77477C3.58746 2.91577 2.82704 4.47882 2.70583 6.14909C2.58638 7.7976 2.96301 9.50967 4.01839 10.8735C5.27474 12.4958 6.55498 13.6095 8.55474 14.9195C9.1267 15.2926 9.87292 15.2926 10.4463 14.9195C12.446 13.6095 13.7263 12.4958 14.9812 10.8735C16.038 9.50967 16.4146 7.7976 16.2938 6.14771C16.1723 4.47792 15.4119 2.91541 14.1658 1.77473C12.9197 0.634054 11.2803 -7.74587e-05 9.5778 1.91199e-07L9.42322 1.91199e-07Z" fill="#8FBFFA"/>
<path d="M9.49957 8.42085C10.8487 8.42085 11.6075 7.67466 11.6075 6.34812C11.6075 5.02157 10.8487 4.27539 9.49957 4.27539C8.15047 4.27539 7.3916 5.02157 7.3916 6.34812C7.3916 7.67466 8.15047 8.42085 9.49957 8.42085Z" fill="#2859C5"/>
</svg>
