<svg width="16" height="19" viewBox="0 0 16 19" fill="none" xmlns="http://www.w3.org/2000/svg">
<path fill-rule="evenodd" clip-rule="evenodd" d="M7.07631 0.178578C6.35169 -0.0217473 5.59568 -0.0539559 4.85858 0.0840942C4.12148 0.222144 3.42017 0.527288 2.80132 0.979229C2.18246 1.43117 1.66024 2.01955 1.26939 2.70523C0.878543 3.3909 0.628024 4.15816 0.534499 4.95597C0.440974 5.75377 0.506587 6.56384 0.726974 7.33228C0.947361 8.10071 1.31747 8.80991 1.81268 9.4127C2.30789 10.0155 2.91686 10.498 3.59906 10.8283C4.28127 11.1585 5.02109 11.3288 5.7693 11.3279H12.2796C13.2662 11.3279 14.2124 10.9067 14.9101 10.1569C15.6078 9.4071 15.9997 8.39017 15.9997 7.32982C15.9997 6.26946 15.6078 5.25253 14.9101 4.50274C14.2124 3.75296 13.2662 3.33173 12.2796 3.33173H12.2771C11.7357 3.33372 11.2011 3.46099 10.7097 3.70489C10.4147 2.84507 9.92993 2.07501 9.29709 1.46081C8.66425 0.846615 7.90219 0.406616 7.07631 0.178578Z" fill="#8FBFFA"/>
<path fill-rule="evenodd" clip-rule="evenodd" d="M5.62685 12.7672C5.8472 12.8856 6.01483 13.0932 6.09294 13.3443C6.17106 13.5954 6.15328 13.8695 6.0435 14.1066L5.42348 15.4393C5.36951 15.5577 5.29425 15.6636 5.20204 15.7506C5.10983 15.8377 5.0025 15.9043 4.88623 15.9466C4.76996 15.9889 4.64706 16.006 4.5246 15.997C4.40215 15.9879 4.28257 15.953 4.17275 15.894C4.06293 15.8351 3.96505 15.7534 3.88476 15.6536C3.80446 15.5539 3.74334 15.438 3.7049 15.3127C3.66647 15.1874 3.6515 15.0552 3.66084 14.9237C3.67018 14.7922 3.70366 14.6639 3.75933 14.5464L4.37936 13.2137C4.48954 12.9765 4.68287 12.7961 4.91681 12.7121C5.15076 12.6282 5.40617 12.6488 5.62685 12.7672ZM11.7031 12.7672C11.9234 12.8856 12.0911 13.0932 12.1692 13.3443C12.2473 13.5954 12.2295 13.8695 12.1197 14.1066L11.4997 15.4393C11.4457 15.5577 11.3705 15.6636 11.2783 15.7506C11.1861 15.8377 11.0787 15.9043 10.9625 15.9466C10.8462 15.9889 10.7233 16.006 10.6008 15.997C10.4784 15.9879 10.3588 15.953 10.249 15.894C10.1392 15.8351 10.0413 15.7534 9.96099 15.6536C9.88069 15.5539 9.81957 15.438 9.78114 15.3127C9.74271 15.1874 9.72773 15.0552 9.73707 14.9237C9.74641 14.7922 9.77989 14.6639 9.83557 14.5464L10.4556 13.2137C10.5658 12.9765 10.7591 12.7961 10.993 12.7121C11.227 12.6282 11.4824 12.6488 11.7031 12.7672ZM8.4616 16.772C8.51727 16.6544 8.55075 16.5262 8.56009 16.3946C8.56943 16.2631 8.55446 16.1309 8.51603 16.0056C8.47759 15.8803 8.41647 15.7645 8.33617 15.6647C8.25588 15.5649 8.158 15.4832 8.04818 15.4243C7.93836 15.3654 7.81878 15.3304 7.69633 15.3214C7.57387 15.3124 7.45097 15.3295 7.3347 15.3718C7.21843 15.414 7.1111 15.4806 7.01889 15.5677C6.92668 15.6548 6.85142 15.7606 6.79745 15.8791L6.17743 17.2118C6.12175 17.3293 6.08827 17.4576 6.07893 17.5891C6.06959 17.7206 6.08457 17.8528 6.123 17.9781C6.16143 18.1034 6.22255 18.2193 6.30285 18.319C6.38315 18.4188 6.48102 18.5005 6.59084 18.5594C6.70066 18.6183 6.82024 18.6533 6.9427 18.6623C7.06515 18.6714 7.18806 18.6542 7.30433 18.612C7.42059 18.5697 7.52793 18.5031 7.62013 18.416C7.71234 18.329 7.7876 18.2231 7.84157 18.1047L8.4616 16.772ZM1.96871 15.4326C2.18938 15.551 2.35725 15.7588 2.43539 16.0102C2.51352 16.2616 2.49553 16.5361 2.38536 16.7733L1.76534 18.106C1.71137 18.2245 1.63611 18.3303 1.5439 18.4174C1.45169 18.5044 1.34436 18.571 1.22809 18.6133C1.11182 18.6556 0.988918 18.6727 0.866463 18.6637C0.744008 18.6547 0.624424 18.6197 0.514607 18.5608C0.40479 18.5018 0.306912 18.4201 0.226616 18.3204C0.14632 18.2206 0.0851944 18.1047 0.0467633 17.9794C0.00833214 17.8542 -0.00664421 17.722 0.00269767 17.5904C0.0120395 17.4589 0.0455148 17.3306 0.101194 17.2131L0.721218 15.8804C0.831398 15.6432 1.02473 15.4628 1.25867 15.3788C1.49262 15.2949 1.74802 15.3142 1.96871 15.4326ZM14.5378 16.7733C14.5935 16.6557 14.627 16.5275 14.6363 16.396C14.6457 16.2644 14.6307 16.1322 14.5923 16.0069C14.5538 15.8817 14.4927 15.7658 14.4124 15.666C14.3321 15.5663 14.2342 15.4846 14.1244 15.4256C14.0146 15.3667 13.895 15.3317 13.7726 15.3227C13.6501 15.3137 13.5272 15.3308 13.4109 15.3731C13.2947 15.4154 13.1873 15.482 13.0951 15.569C13.0029 15.6561 12.9277 15.7619 12.8737 15.8804L12.2537 17.2131C12.198 17.3306 12.1645 17.4589 12.1552 17.5904C12.1458 17.722 12.1608 17.8542 12.1992 17.9794C12.2377 18.1047 12.2988 18.2206 12.3791 18.3204C12.4594 18.4201 12.5573 18.5018 12.6671 18.5608C12.7769 18.6197 12.8965 18.6547 13.0189 18.6637C13.1414 18.6727 13.2643 18.6556 13.3806 18.6133C13.4968 18.571 13.6042 18.5044 13.6964 18.4174C13.7886 18.3303 13.8638 18.2245 13.9178 18.106L14.5378 16.7733Z" fill="#2859C5"/>
</svg>
