<svg width="17" height="17" viewBox="0 0 17 17" fill="none" xmlns="http://www.w3.org/2000/svg">
<path fill-rule="evenodd" clip-rule="evenodd" d="M10.3214 0C6.545 0 5.10243 2.73994 4.86564 4.16598C4.84803 4.2726 4.85899 4.382 4.89738 4.48297C4.93578 4.58394 5.00023 4.67284 5.08414 4.74057C5.16805 4.80829 5.26839 4.8524 5.37488 4.86837C5.48137 4.88435 5.59018 4.87161 5.69014 4.83146C6.37257 4.55722 6.902 4.50969 7.30514 4.58038C7.69979 4.64985 8.01671 4.84121 8.27657 5.13007C8.81693 5.7334 9.10714 6.7755 9.10714 7.92242C9.10714 9.35577 7.61964 10.9695 5.46429 10.9695C4.42364 10.9695 3.3745 10.4174 2.98714 9.51057C2.94025 9.40015 2.86192 9.3061 2.76197 9.2402C2.66203 9.1743 2.54492 9.13949 2.42534 9.14014C2.30576 9.14079 2.18904 9.17687 2.08981 9.24386C1.99058 9.31084 1.91327 9.40574 1.86757 9.51666C1.61257 10.1334 1.07221 10.6221 0.434714 10.8123C0.309253 10.8496 0.199154 10.9266 0.12082 11.0318C0.0424856 11.137 0.000107869 11.2648 0 11.3961L0 15.8826C0 16.0443 0.0639667 16.1993 0.177828 16.3136C0.291689 16.4278 0.446119 16.4921 0.607143 16.4921H16.3929C16.5539 16.4921 16.7083 16.4278 16.8222 16.3136C16.936 16.1993 17 16.0443 17 15.8826V4.26592C17 4.17113 16.978 4.07765 16.9356 3.9929C16.2654 2.64853 14.0286 0 10.3214 0Z" fill="#8FBFFA"/>
<path fill-rule="evenodd" clip-rule="evenodd" d="M2.70035 13.3853C2.87946 13.3841 3.05494 13.436 3.20483 13.5344C3.35473 13.6329 3.47238 13.7735 3.54306 13.9387C3.70578 14.3226 3.98628 14.6432 4.34206 14.8577C5.03663 15.2769 6.16835 15.2769 6.86413 14.8577C7.21988 14.643 7.49939 14.3215 7.66313 13.9387C7.73347 13.7745 7.8502 13.6346 7.9989 13.5363C8.14759 13.438 8.32173 13.3857 8.49978 13.3857C8.67782 13.3857 8.85196 13.438 9.00066 13.5363C9.14935 13.6346 9.26609 13.7745 9.33642 13.9387C9.50035 14.3226 9.77963 14.6432 10.1354 14.8577C10.8312 15.2769 11.9629 15.2769 12.6575 14.8577C13.0133 14.6432 13.2938 14.3214 13.4565 13.9387C13.5271 13.7734 13.6446 13.6328 13.7944 13.5342C13.9443 13.4357 14.1197 13.3837 14.2988 13.3848C14.4779 13.3858 14.6527 13.4398 14.8014 13.5401C14.95 13.6404 15.066 13.7824 15.1346 13.9484C15.2382 14.1978 15.3957 14.421 15.5959 14.6017C15.7961 14.7823 16.0338 14.916 16.2918 14.993C16.4065 15.0272 16.5133 15.0838 16.6062 15.1595C16.699 15.2352 16.7761 15.3285 16.8331 15.4341C16.89 15.5397 16.9257 15.6555 16.938 15.7749C16.9504 15.8943 16.9392 16.015 16.9051 16.1301C16.8709 16.2452 16.8146 16.3524 16.7392 16.4456C16.6638 16.5389 16.5708 16.6162 16.4656 16.6734C16.3604 16.7306 16.245 16.7664 16.126 16.7788C16.007 16.7911 15.8868 16.7799 15.7721 16.7456C15.2183 16.5804 14.7117 16.285 14.2943 15.8839C14.083 16.091 13.8483 16.2727 13.5949 16.4251C12.3236 17.1917 10.4706 17.1917 9.19921 16.4251C8.9459 16.2726 8.71118 16.091 8.49978 15.8839C8.28837 16.091 8.05365 16.2726 7.80035 16.4251C6.52899 17.1917 4.67599 17.1917 3.40463 16.4251C3.1513 16.2726 2.91657 16.091 2.70521 15.8839C2.28788 16.285 1.78127 16.5804 1.22742 16.7456C1.11277 16.7799 0.992515 16.7911 0.87353 16.7788C0.754545 16.7664 0.639157 16.7306 0.533955 16.6734C0.428753 16.6162 0.335796 16.5389 0.260393 16.4456C0.18499 16.3524 0.128616 16.2452 0.0944916 16.1301C0.0603666 16.015 0.0491585 15.8943 0.0615071 15.7749C0.0738558 15.6555 0.109519 15.5397 0.166462 15.4341C0.223404 15.3285 0.300509 15.2352 0.393376 15.1595C0.486243 15.0838 0.593052 15.0272 0.707706 14.993C0.965756 14.916 1.20349 14.7823 1.40366 14.6017C1.60382 14.421 1.76139 14.1978 1.86492 13.9484C1.93364 13.7825 2.04953 13.6407 2.19811 13.5405C2.34669 13.4404 2.52138 13.3864 2.70035 13.3853Z" fill="#2859C5"/>
</svg>
