<svg width="1151" height="1024" viewBox="0 0 1151 1024" fill="none" xmlns="http://www.w3.org/2000/svg">
<path fill-rule="evenodd" clip-rule="evenodd" d="M1151 -2.33498L1151 1064L903.911 1098.89C903.911 1098.89 572.691 1171.37 498.893 961.624C426.631 818.264 602.985 683.881 597.908 526.589C591.826 338.138 373.615 151.762 472.451 -2.335L1151 -2.33498Z" fill="#7AA6C8"/>
<path fill-rule="evenodd" clip-rule="evenodd" d="M1151 -1.44869L1151 1056.57L684.211 1056.57C684.211 1056.57 783.329 882.953 767.998 732.236C749.63 551.663 536.374 367.017 595.618 216.662C645.846 89.1914 652.982 82.2699 673.947 -2.80658C673.947 -2.80658 782.081 -2.77582 853.55 -1.44809L1151 -1.44869Z" fill="#2768CA"/>
<path fill-rule="evenodd" clip-rule="evenodd" d="M1150 -4.99981L1150 1060C1150 1060 1025.94 1060.2 648 1060C572.324 911.385 776.988 691.117 773.476 524.134C769.268 324.073 506.203 164.081 614 -4.99987L1150 -4.99981Z" fill="#0750AF" fill-opacity="0.63"/>
<path fill-rule="evenodd" clip-rule="evenodd" d="M2259 1285.66L2259 2351L924 2351C924 2351 572.691 2459.37 498.893 2249.62C426.631 2106.26 602.986 1971.88 597.909 1814.59C591.826 1626.14 373.615 1439.76 472.451 1285.66L2259 1285.66Z" fill="#7AA6C8"/>
<path fill-rule="evenodd" clip-rule="evenodd" d="M2255 1286.55L2255 2344.57L684.21 2344.57C684.21 2344.57 783.328 2170.95 767.997 2020.24C749.629 1839.66 536.373 1655.02 595.618 1504.66C645.845 1377.19 652.981 1370.27 673.947 1285.19C673.947 1285.19 782.08 1285.22 853.549 1286.55L2255 1286.55Z" fill="#2768CA"/>
<path fill-rule="evenodd" clip-rule="evenodd" d="M2251 1283L2251 2324C2251 2324 1025.94 2348.2 647.999 2348C572.323 2199.39 776.988 1979.12 773.476 1812.13C769.267 1612.07 506.203 1452.08 614 1283L2251 1283Z" fill="#0750AF" fill-opacity="0.63"/>
</svg>
