<svg width="3826" height="1508" viewBox="0 0 3826 1508" fill="none" xmlns="http://www.w3.org/2000/svg">
<mask id="mask0_3860_71" style="mask-type:alpha" maskUnits="userSpaceOnUse" x="0" y="0" width="2347" height="1500">
<rect x="0.5" y="0.5" width="2346" height="1499" fill="white" stroke="black"/>
</mask>
<g mask="url(#mask0_3860_71)">
<path fill-rule="evenodd" clip-rule="evenodd" d="M2466.63 -40.3258L2466.63 1514.36L985.833 1514.36C985.833 1514.36 636.459 1655.47 563.068 1382.36C491.203 1195.69 666.587 1020.72 661.538 815.909C655.489 570.531 441.846 371.132 563.068 -40.3258L2466.63 -40.3258Z" fill="#7AA6C8"/>
<path fill-rule="evenodd" clip-rule="evenodd" d="M2466.63 -45.5344L2466.63 1505.98L747.364 1505.98C747.364 1505.98 845.936 1279.93 830.689 1083.68C812.423 848.558 600.341 608.132 659.26 412.358C709.21 246.381 726.514 65.2425 747.364 -45.5343C747.364 -45.5343 879.95 -47.2632 951.026 -45.5344L2466.63 -45.5344Z" fill="#2768CA"/>
<path fill-rule="evenodd" clip-rule="evenodd" d="M2462.65 -40.3259L2462.65 1510.46C2462.65 1510.46 1087.21 1510.71 711.352 1510.46C636.093 1316.95 839.63 1030.14 836.137 812.714C831.952 552.218 577.3 179.831 684.503 -40.3262L2462.65 -40.3259Z" fill="#0750AF" fill-opacity="0.63"/>
<circle cx="52.0485" cy="1072.47" r="5.01332" fill="#2768CA"/>
<circle cx="291.3" cy="1097.94" r="5.01332" fill="#2768CA"/>
<circle cx="584.019" cy="507.579" r="5.01332" fill="#2768CA"/>
<ellipse cx="406.096" cy="1226.05" rx="12.056" ry="17.2314" fill="#2768CA"/>
<circle cx="505.165" cy="1401.57" r="12.5333" fill="#2768CA"/>
<ellipse cx="457.465" cy="673.15" rx="12.056" ry="17.2314" fill="#2768CA"/>
<circle cx="493.109" cy="374.972" r="5.63998" fill="#2768CA"/>
<circle cx="541.858" cy="1038.01" r="8.7733" fill="#2768CA"/>
<circle cx="225.255" cy="1373.64" r="8.7733" fill="#2768CA"/>
<circle cx="500.973" cy="198.911" r="8.7733" fill="#2768CA"/>
<circle cx="406.62" cy="41.3641" r="8.7733" fill="#2768CA"/>
<circle cx="482.626" cy="694.127" r="4.38665" fill="#2768CA"/>
<circle cx="534.519" cy="832.728" r="5.01332" fill="#2768CA"/>
<circle cx="316.462" cy="1002.05" r="7.51998" fill="#2768CA"/>
<circle cx="226.303" cy="718.851" r="7.51998" fill="#2768CA"/>
<circle cx="180.176" cy="1035.01" r="5.01332" fill="#2768CA"/>
</g>
<mask id="mask1_3860_71" style="mask-type:alpha" maskUnits="userSpaceOnUse" x="1639" y="0" width="2187" height="1500">
<rect x="-0.5" y="0.5" width="2186" height="1499" transform="matrix(-1 0 0 1 3825 0)" fill="white" stroke="black"/>
</mask>
<g mask="url(#mask1_3860_71)">
<path fill-rule="evenodd" clip-rule="evenodd" d="M1527.52 -40.3257L1527.52 1514.36L2907.37 1514.36C2907.37 1514.36 3232.93 1655.47 3301.32 1382.36C3368.28 1195.69 3204.85 1020.72 3209.56 815.909C3215.2 570.53 3414.27 371.132 3301.32 -40.326L1527.52 -40.3257Z" fill="#7AA6C8"/>
<path fill-rule="evenodd" clip-rule="evenodd" d="M1527.52 -45.5343L1527.52 1505.98L3129.58 1505.98C3129.58 1505.98 3037.73 1279.93 3051.94 1083.68C3068.96 848.558 3266.58 608.132 3211.68 412.358C3165.14 246.381 3149.01 65.2425 3129.58 -45.5342C3129.58 -45.5342 3006.04 -47.2631 2939.81 -45.5343L1527.52 -45.5343Z" fill="#2768CA"/>
<path fill-rule="evenodd" clip-rule="evenodd" d="M1531.23 -40.326L1531.23 1510.46C1531.23 1510.46 2812.9 1510.71 3163.14 1510.46C3233.27 1316.95 3043.61 1030.14 3046.86 812.714C3050.76 552.218 3288.05 179.831 3188.16 -40.3261L1531.23 -40.326Z" fill="#0750AF" fill-opacity="0.63"/>
<circle cx="4.83942" cy="4.83942" r="4.83942" transform="matrix(-1 0 0 1 3782.17 1067.63)" fill="#2768CA"/>
<circle cx="4.83942" cy="4.83942" r="4.83942" transform="matrix(-1 0 0 1 3559.4 1093.1)" fill="#2768CA"/>
<circle cx="4.83942" cy="4.83942" r="4.83942" transform="matrix(-1 0 0 1 3286.8 502.74)" fill="#2768CA"/>
<ellipse cx="11.2342" cy="17.2314" rx="11.2342" ry="17.2314" transform="matrix(-1 0 0 1 3458.82 1208.82)" fill="#2768CA"/>
<circle cx="12.0985" cy="12.0985" r="12.0985" transform="matrix(-1 0 0 1 3367.37 1389.9)" fill="#2768CA"/>
<ellipse cx="11.2342" cy="17.2314" rx="11.2342" ry="17.2314" transform="matrix(-1 0 0 1 3410.96 655.919)" fill="#2768CA"/>
<circle cx="5.44434" cy="5.44434" r="5.44434" transform="matrix(-1 0 0 1 3371.95 369.527)" fill="#2768CA"/>
<circle cx="8.46898" cy="8.46898" r="8.46898" transform="matrix(-1 0 0 1 3329.55 1029.54)" fill="#2768CA"/>
<circle cx="8.46898" cy="8.46898" r="8.46898" transform="matrix(-1 0 0 1 3624.57 1365.18)" fill="#2768CA"/>
<circle cx="8.46898" cy="8.46898" r="8.46898" transform="matrix(-1 0 0 1 3367.65 190.442)" fill="#2768CA"/>
<circle cx="8.46898" cy="8.46898" r="8.46898" transform="matrix(-1 0 0 1 3455.57 32.5908)" fill="#2768CA"/>
<circle cx="4.23449" cy="4.23449" r="4.23449" transform="matrix(-1 0 0 1 3380.51 689.893)" fill="#2768CA"/>
<circle cx="4.83942" cy="4.83942" r="4.83942" transform="matrix(-1 0 0 1 3332.76 827.889)" fill="#2768CA"/>
<circle cx="7.25912" cy="7.25912" r="7.25912" transform="matrix(-1 0 0 1 3538.37 994.786)" fill="#2768CA"/>
<circle cx="7.25912" cy="7.25912" r="7.25912" transform="matrix(-1 0 0 1 3622.38 711.592)" fill="#2768CA"/>
<circle cx="4.83942" cy="4.83942" r="4.83942" transform="matrix(-1 0 0 1 3662.95 1030.17)" fill="#2768CA"/>
</g>
</svg>
