<svg width="2348" height="1160" viewBox="0 0 2348 1160" fill="none" xmlns="http://www.w3.org/2000/svg">
<path fill-rule="evenodd" clip-rule="evenodd" d="M2464.29 -30.9702L2464.29 1163.03L975.295 1163.03C975.295 1163.03 623.986 1271.4 550.188 1061.65C477.926 918.294 654.281 783.91 649.204 626.618C643.121 438.167 428.295 285.03 550.188 -30.9703L2464.29 -30.9702Z" fill="#7AA6C8"/>
<path fill-rule="evenodd" clip-rule="evenodd" d="M2464.29 -34.9705L2464.29 1156.6L735.505 1156.6C735.505 1156.6 834.622 982.983 819.291 832.265C800.924 651.693 587.667 467.045 646.912 316.691C697.14 189.22 714.539 50.1062 735.505 -34.9703C735.505 -34.9703 868.825 -36.2982 940.295 -34.9704L2464.29 -34.9705Z" fill="#2768CA"/>
<path fill-rule="evenodd" clip-rule="evenodd" d="M2460.3 -30.9704L2460.3 1160.03C2460.3 1160.03 1077.24 1160.23 699.293 1160.03C623.617 1011.42 828.282 791.147 824.77 624.164C820.562 424.103 564.499 138.11 672.296 -30.9706L2460.3 -30.9704Z" fill="#0750AF" fill-opacity="0.63"/>
<circle cx="35.7015" cy="823.657" r="4.4056" fill="#2768CA"/>
<circle cx="276.914" cy="843.22" r="4.4056" fill="#2768CA"/>
<circle cx="571.89" cy="389.821" r="4.4056" fill="#2768CA"/>
<ellipse cx="392.345" cy="941.61" rx="12.1228" ry="13.2337" fill="#2768CA"/>
<circle cx="491.963" cy="1075.02" r="11.014" fill="#2768CA"/>
<ellipse cx="443.999" cy="516.979" rx="12.1228" ry="13.2337" fill="#2768CA"/>
<circle cx="479.84" cy="287.978" r="4.9563" fill="#2768CA"/>
<circle cx="528.859" cy="797.189" r="7.7098" fill="#2768CA"/>
<circle cx="210.503" cy="1054.96" r="7.7098" fill="#2768CA"/>
<circle cx="487.747" cy="152.764" r="7.7098" fill="#2768CA"/>
<circle cx="392.872" cy="32.7396" r="7.7098" fill="#2768CA"/>
<circle cx="469.299" cy="533.09" r="3.8549" fill="#2768CA"/>
<circle cx="521.48" cy="639.535" r="4.4056" fill="#2768CA"/>
<circle cx="302.215" cy="769.571" r="6.6084" fill="#2768CA"/>
<circle cx="211.557" cy="552.078" r="6.6084" fill="#2768CA"/>
<circle cx="165.174" cy="794.888" r="4.4056" fill="#2768CA"/>
</svg>
