<svg width="3826" height="1160" viewBox="0 0 3826 1160" fill="none" xmlns="http://www.w3.org/2000/svg">
<mask id="mask0_3860_71" style="mask-type:alpha" maskUnits="userSpaceOnUse" x="0" y="0" width="2360" height="1152">
<rect x="0.5" y="0.5" width="2359" height="1151" fill="white" stroke="black"/>
</mask>
<g mask="url(#mask0_3860_71)">
<path fill-rule="evenodd" clip-rule="evenodd" d="M2480.29 -30.9702L2480.29 1163.03L991.294 1163.03C991.294 1163.03 639.985 1271.4 566.187 1061.65C493.925 918.294 670.28 783.91 665.203 626.618C659.12 438.167 444.294 285.03 566.187 -30.9703L2480.29 -30.9702Z" fill="#7AA6C8"/>
<path fill-rule="evenodd" clip-rule="evenodd" d="M2480.29 -34.9705L2480.29 1156.6L751.505 1156.6C751.505 1156.6 850.622 982.982 835.291 832.265C816.924 651.693 603.667 467.045 662.912 316.691C713.14 189.22 730.539 50.1061 751.505 -34.9703C751.505 -34.9703 884.825 -36.2981 956.295 -34.9704L2480.29 -34.9705Z" fill="#2768CA"/>
<path fill-rule="evenodd" clip-rule="evenodd" d="M2476.29 -30.9704L2476.3 1160.03C2476.3 1160.03 1093.24 1160.23 715.292 1160.03C639.616 1011.42 844.281 791.147 840.769 624.164C836.561 424.103 580.498 138.11 688.295 -30.9706L2476.29 -30.9704Z" fill="#0750AF" fill-opacity="0.63"/>
<circle cx="51.7015" cy="823.657" r="4.4056" fill="#2768CA"/>
<circle cx="292.914" cy="843.22" r="4.4056" fill="#2768CA"/>
<circle cx="587.89" cy="389.821" r="4.4056" fill="#2768CA"/>
<ellipse cx="408.345" cy="941.61" rx="12.1228" ry="13.2337" fill="#2768CA"/>
<circle cx="507.963" cy="1075.02" r="11.014" fill="#2768CA"/>
<ellipse cx="459.999" cy="516.979" rx="12.1228" ry="13.2337" fill="#2768CA"/>
<circle cx="495.84" cy="287.978" r="4.9563" fill="#2768CA"/>
<circle cx="544.859" cy="797.189" r="7.7098" fill="#2768CA"/>
<circle cx="226.503" cy="1054.96" r="7.7098" fill="#2768CA"/>
<circle cx="503.747" cy="152.764" r="7.7098" fill="#2768CA"/>
<circle cx="408.872" cy="32.7396" r="7.7098" fill="#2768CA"/>
<circle cx="485.299" cy="533.09" r="3.8549" fill="#2768CA"/>
<circle cx="537.48" cy="639.535" r="4.4056" fill="#2768CA"/>
<circle cx="318.215" cy="769.571" r="6.6084" fill="#2768CA"/>
<circle cx="227.557" cy="552.078" r="6.6084" fill="#2768CA"/>
<circle cx="181.174" cy="794.888" r="4.4056" fill="#2768CA"/>
</g>
<mask id="mask1_3860_71" style="mask-type:alpha" maskUnits="userSpaceOnUse" x="1466" y="0" width="2360" height="1152">
<rect x="-0.5" y="0.5" width="2359" height="1151" transform="matrix(-1 0 0 1 3825 0)" fill="white" stroke="black"/>
</mask>
<g mask="url(#mask1_3860_71)">
<path fill-rule="evenodd" clip-rule="evenodd" d="M1345.71 -30.9702L1345.71 1163.03L2834.71 1163.03C2834.71 1163.03 3186.01 1271.4 3259.81 1061.65C3332.07 918.294 3155.72 783.91 3160.8 626.618C3166.88 438.167 3381.7 285.03 3259.81 -30.9703L1345.71 -30.9702Z" fill="#7AA6C8"/>
<path fill-rule="evenodd" clip-rule="evenodd" d="M1345.71 -34.9705L1345.71 1156.6L3074.5 1156.6C3074.5 1156.6 2975.38 982.982 2990.71 832.265C3009.08 651.693 3222.33 467.045 3163.09 316.691C3112.86 189.22 3095.46 50.1061 3074.5 -34.9703C3074.5 -34.9703 2941.18 -36.2981 2869.71 -34.9704L1345.71 -34.9705Z" fill="#2768CA"/>
<path fill-rule="evenodd" clip-rule="evenodd" d="M1349.7 -30.9704L1349.7 1160.03C1349.7 1160.03 2732.76 1160.23 3110.71 1160.03C3186.38 1011.42 2981.72 791.147 2985.23 624.164C2989.44 424.103 3245.5 138.11 3137.7 -30.9706L1349.7 -30.9704Z" fill="#0750AF" fill-opacity="0.63"/>
<circle cx="4.4056" cy="4.4056" r="4.4056" transform="matrix(-1 0 0 1 3778.7 819.251)" fill="#2768CA"/>
<circle cx="4.4056" cy="4.4056" r="4.4056" transform="matrix(-1 0 0 1 3537.49 838.814)" fill="#2768CA"/>
<circle cx="4.4056" cy="4.4056" r="4.4056" transform="matrix(-1 0 0 1 3242.52 385.415)" fill="#2768CA"/>
<ellipse cx="12.1228" cy="13.2337" rx="12.1228" ry="13.2337" transform="matrix(-1 0 0 1 3429.78 928.376)" fill="#2768CA"/>
<circle cx="11.014" cy="11.014" r="11.014" transform="matrix(-1 0 0 1 3329.05 1064)" fill="#2768CA"/>
<ellipse cx="12.1228" cy="13.2337" rx="12.1228" ry="13.2337" transform="matrix(-1 0 0 1 3378.12 503.746)" fill="#2768CA"/>
<circle cx="4.9563" cy="4.9563" r="4.9563" transform="matrix(-1 0 0 1 3335.12 283.022)" fill="#2768CA"/>
<circle cx="7.7098" cy="7.7098" r="7.7098" transform="matrix(-1 0 0 1 3288.85 789.479)" fill="#2768CA"/>
<circle cx="7.7098" cy="7.7098" r="7.7098" transform="matrix(-1 0 0 1 3607.21 1047.25)" fill="#2768CA"/>
<circle cx="7.7098" cy="7.7098" r="7.7098" transform="matrix(-1 0 0 1 3329.96 145.054)" fill="#2768CA"/>
<circle cx="7.7098" cy="7.7098" r="7.7098" transform="matrix(-1 0 0 1 3424.84 25.0298)" fill="#2768CA"/>
<circle cx="3.8549" cy="3.8549" r="3.8549" transform="matrix(-1 0 0 1 3344.56 529.235)" fill="#2768CA"/>
<circle cx="4.4056" cy="4.4056" r="4.4056" transform="matrix(-1 0 0 1 3292.93 635.129)" fill="#2768CA"/>
<circle cx="6.6084" cy="6.6084" r="6.6084" transform="matrix(-1 0 0 1 3514.39 762.962)" fill="#2768CA"/>
<circle cx="6.6084" cy="6.6084" r="6.6084" transform="matrix(-1 0 0 1 3605.05 545.469)" fill="#2768CA"/>
<circle cx="4.4056" cy="4.4056" r="4.4056" transform="matrix(-1 0 0 1 3649.23 790.482)" fill="#2768CA"/>
</g>
</svg>