<svg width="1021" height="1024" viewBox="0 0 1021 1024" fill="none" xmlns="http://www.w3.org/2000/svg">
<path fill-rule="evenodd" clip-rule="evenodd" d="M-130.984 33.665L-130.984 1100L116.105 1134.89C116.105 1134.89 447.325 1207.37 521.122 997.624C593.385 854.264 417.03 719.881 422.107 562.589C428.19 374.138 646.401 187.762 547.565 33.665L-130.984 33.665Z" fill="#7AA6C8"/>
<path fill-rule="evenodd" clip-rule="evenodd" d="M-130.984 34.5513L-130.984 1092.57L335.805 1092.57C335.805 1092.57 236.688 918.953 252.019 768.236C270.386 587.663 483.643 403.017 424.398 252.662C374.171 125.191 367.035 118.27 346.069 33.1934C346.069 33.1934 237.936 33.2242 166.467 34.5519L-130.984 34.5513Z" fill="#2768CA"/>
<path fill-rule="evenodd" clip-rule="evenodd" d="M-129.984 31.0002L-129.984 1096C-129.984 1096 -5.92868 1096.2 372.016 1096C447.692 947.385 243.027 727.117 246.54 560.134C250.748 360.073 513.813 200.081 406.016 31.0001L-129.984 31.0002Z" fill="#0750AF" fill-opacity="0.63"/>
</svg>
