<svg width="1440" height="266" viewBox="0 0 1440 266" fill="none" xmlns="http://www.w3.org/2000/svg">
<path d="M5.72205e-06 63.5C53.5 29.5 53.5 30 94 18.5C165.5 8.00002 164.752 6.65271 209.5 10.5C254.248 14.3473 274 18.5 320.5 37.5C363.253 52.6655 377.138 74.4129 427 88.5C476.863 102.587 524.888 105.453 574 97.5C623.111 89.5474 636.547 80.4034 676 63.5C706.777 50.3133 713.878 46.7465 743.524 29.1984C764.366 16.8615 787.105 7.81027 811.012 3.9289C834.573 0.103652 845.299 0.183944 881 0C980.5 6 978.879 6.47243 1028 18.5C1133 54 1089.38 40.2284 1133 54C1176.62 67.7716 1207.32 86.3296 1251.5 88.5C1272.25 89.5197 1287.89 87.3268 1302.46 84.2187C1335.78 77.1086 1358.62 51.1857 1392.69 51.2002C1420.92 51.2122 1457.11 62.4425 1475.6 41.1173C1486.24 28.8407 1469.77 49.1857 1440 263.5H5.72205e-06C1.90735e-06 63.5 -27 85.5 5.72205e-06 63.5Z" fill="#7AA6C8"/>
<path d="M1431.85 123.5C1378.39 89.5 1378.39 90 1337.92 78.5C1266.46 68 1267.21 66.6527 1222.49 70.5C1177.78 74.3473 1158.04 78.5 1111.57 97.5C1068.84 112.666 1054.97 134.413 1005.14 148.5C955.311 162.587 907.318 165.453 858.239 157.5C809.16 149.547 795.733 140.403 756.308 123.5C725.562 110.318 718.46 106.749 688.861 89.2175C668.012 76.8686 645.262 67.8056 621.343 63.922C597.828 60.1037 587.1 60.1838 551.445 60C452.011 66 453.632 66.4724 404.543 78.5C299.614 114 343.204 100.228 299.614 114C256.023 127.772 225.34 146.33 181.193 148.5C160.452 149.52 144.823 147.327 130.265 144.219C96.9652 137.109 74.1477 111.189 40.0969 111.2C11.8871 111.209 -24.2865 122.438 -42.7579 101.117C-53.3921 88.8415 -36.9258 109.19 -7.18054 323.5H1431.85C1431.85 123.5 1458.84 145.5 1431.85 123.5Z" fill="#2768CA"/>
<path d="M-0.00804329 183.5C53.4561 149.5 53.4561 150 93.9289 138.5C165.381 128 164.634 126.653 209.351 130.5C254.069 134.347 273.808 138.5 320.277 157.5C363.001 172.666 376.877 194.413 426.706 208.5C476.535 222.587 524.528 225.453 573.607 217.5C622.685 209.547 636.112 200.403 675.538 183.5C706.284 170.318 713.386 166.749 742.985 149.218C763.834 136.869 786.584 127.806 810.503 123.922C834.018 120.104 844.745 120.184 880.401 120C979.834 126 978.214 126.472 1027.3 138.5C1132.23 174 1088.64 160.228 1132.23 174C1175.82 187.772 1206.51 206.33 1250.65 208.5C1271.39 209.52 1287.02 207.327 1301.58 204.219C1334.88 197.109 1357.7 171.189 1391.75 171.2C1419.96 171.209 1456.13 182.438 1474.6 161.116C1485.24 148.842 1468.77 169.19 1439.03 383.5H-0.00804329C-0.0080471 183.5 -26.9899 205.5 -0.00804329 183.5Z" fill="#1359B9"/>
</svg>
