<svg width="42" height="44" viewBox="0 0 42 44" fill="none" xmlns="http://www.w3.org/2000/svg">
<g filter="url(#filter0_d_3149_2654)">
<path d="M30.001 21.0007C30.001 25.9716 24.1507 32.2513 21.0005 32.2513C17.8503 32.2513 12 25.9716 12 21.0007C12 16.0299 16.0297 12.0002 21.0005 12.0002C25.9713 12.0002 30.001 16.0299 30.001 21.0007Z" fill="white"/>
</g>
<path d="M21.001 13.8513C24.9496 13.8515 28.1504 17.053 28.1504 21.0017C28.1502 24.9502 24.9495 28.1509 21.001 28.1511C17.0523 28.1511 13.8508 24.9504 13.8506 21.0017C13.8506 17.0529 17.0521 13.8513 21.001 13.8513Z" fill="#2768CA" stroke="#27CA2C"/>
<path d="M23.4698 21.7557L23.0684 21.5196C23.0033 21.4821 22.9671 21.4221 22.9599 21.3397C22.9526 21.2572 22.9816 21.1897 23.0467 21.1373L24.0666 20.3502C24.1389 20.2903 24.2167 20.2583 24.3 20.2544C24.3834 20.2505 24.4647 20.2712 24.5439 20.3165L24.9454 20.5526C25.0105 20.5901 25.0449 20.65 25.0487 20.7325C25.0524 20.815 25.0252 20.8824 24.9671 20.9349L23.9472 21.7219C23.8749 21.7819 23.7972 21.8138 23.7142 21.8177C23.6311 21.8216 23.5497 21.801 23.4698 21.7557ZM21.6687 20.5301L22.7971 19.6419L19.8026 17.8541L19.1516 19.0235L21.6687 20.5301ZM18.2836 24.1506C18.1606 24.1506 18.0576 24.1074 17.9746 24.0211C17.8916 23.9347 17.8499 23.828 17.8496 23.7008C17.8493 23.5737 17.891 23.467 17.9746 23.3806C18.0582 23.2943 18.1612 23.2511 18.2836 23.2511H20.0196V20.5751L18.7176 19.7993C18.5078 19.6718 18.3723 19.4901 18.3109 19.2542C18.2496 19.0182 18.2803 18.7914 18.403 18.5737L19.0539 17.4044C19.1769 17.187 19.3524 17.0465 19.5804 16.983C19.8084 16.9194 20.0271 16.9512 20.2366 17.0783L23.8062 19.2034C23.9436 19.2858 24.0159 19.4077 24.0232 19.569C24.0304 19.7303 23.9725 19.8595 23.8496 19.9567L22.1787 21.2497C22.034 21.3547 21.8785 21.4128 21.7121 21.4242C21.5458 21.4356 21.3867 21.3962 21.2348 21.3059L20.8876 21.1035V23.2511C20.8876 23.4985 20.8026 23.7103 20.6328 23.8866C20.463 24.0629 20.2586 24.1509 20.0196 24.1506H18.2836Z" fill="white"/>
<defs>
<filter id="filter0_d_3149_2654" x="0.3" y="0.300244" width="41.401" height="43.6512" filterUnits="userSpaceOnUse" color-interpolation-filters="sRGB">
<feFlood flood-opacity="0" result="BackgroundImageFix"/>
<feColorMatrix in="SourceAlpha" type="matrix" values="0 0 0 0 0 0 0 0 0 0 0 0 0 0 0 0 0 0 127 0" result="hardAlpha"/>
<feOffset/>
<feGaussianBlur stdDeviation="5.85"/>
<feComposite in2="hardAlpha" operator="out"/>
<feColorMatrix type="matrix" values="0 0 0 0 0 0 0 0 0 0 0 0 0 0 0 0 0 0 0.25 0"/>
<feBlend mode="normal" in2="BackgroundImageFix" result="effect1_dropShadow_3149_2654"/>
<feBlend mode="normal" in="SourceGraphic" in2="effect1_dropShadow_3149_2654" result="shape"/>
</filter>
</defs>
</svg>
