<svg width="38" height="38" viewBox="0 0 38 38" fill="none" xmlns="http://www.w3.org/2000/svg">
<path d="M32.0387 8.90328C32.0358 8.8825 32.0387 8.86469 32.0387 8.84391C32.0387 6.14532 29.8508 3.95438 27.1492 3.95438C26.8019 3.95438 26.4634 3.99297 26.1369 4.06125C25.1691 1.70406 22.8534 0.0415649 20.1459 0.0415649C18.1123 0.0415649 16.3014 0.97969 15.1139 2.44328C14.3261 2.04123 13.4542 1.83165 12.5697 1.83172C9.64546 1.83172 7.24078 4.06125 6.96171 6.91125C3.77921 7.08047 1.22906 9.68703 1.18749 12.923C1.14296 16.2925 3.84156 19.0594 7.21109 19.1039C7.47234 19.1069 7.73062 19.0891 7.98296 19.0594C9.28624 21.8055 12.0798 23.7055 15.3217 23.7055C17.2781 23.7055 19.0712 23.0138 20.4725 21.8619C21.5442 22.6545 22.8653 23.1295 24.3022 23.1295C27.2472 23.1295 29.7261 21.1523 30.498 18.4567C30.9848 18.617 31.5014 18.7091 32.0417 18.7091C34.7492 18.7091 36.9461 16.5152 36.9461 13.8047C36.9431 11.0972 34.7462 8.90328 32.0387 8.90328Z" fill="#E3EBEE"/>
<path d="M34.9184 9.83844C36.0287 10.9606 35.245 13.5345 34.479 14.3717C32.9769 16.0194 30.2159 15.6334 29.1086 15.3959C28.8087 15.3306 28.7612 15.3544 28.6633 15.4138C28.5772 15.4672 28.5356 15.5533 28.4406 15.7552C28.0844 16.5241 27.164 18.0144 25.2195 18.6141C23.1948 19.2405 21.2829 18.2875 20.3894 17.7175C20.0509 17.5008 20.0361 17.4978 19.8817 17.4978C19.7273 17.4978 19.5729 17.6136 19.3889 17.7591C18.5814 18.3944 16.7348 19.5166 13.8878 19.3533C11.0972 19.193 9.49998 17.4711 8.95373 16.5894C8.84982 16.4202 8.73404 16.2777 8.60638 16.2628C8.45795 16.248 8.2917 16.4023 8.16404 16.5241C6.97654 17.6819 3.24185 18.0263 2.00092 16.058C3.25967 18.0797 5.20717 19.0802 7.20513 19.1039C7.46638 19.1069 7.72467 19.0891 7.97701 19.0594C9.28029 21.8055 12.0739 23.7055 15.3158 23.7055C17.2722 23.7055 19.0653 23.0138 20.4665 21.8619C21.5383 22.6545 22.8594 23.1295 24.2962 23.1295C27.2412 23.1295 29.7201 21.1523 30.492 18.4567C30.9789 18.617 31.4954 18.7091 32.0358 18.7091C34.7433 18.7091 36.9401 16.5152 36.9401 13.8047C36.9431 12.3619 36.2158 10.735 34.9184 9.83844Z" fill="#B9CDD2"/>
</svg>
