<svg width="42" height="42" viewBox="0 0 42 42" fill="none" xmlns="http://www.w3.org/2000/svg">
<path d="M35.4112 9.84043C35.408 9.81746 35.4112 9.79777 35.4112 9.77481C35.4112 6.79215 32.993 4.37059 30.007 4.37059C29.6231 4.37059 29.2491 4.41324 28.8881 4.48871C27.8184 1.8834 25.2591 0.0458984 22.2666 0.0458984C20.0189 0.0458984 18.0173 1.08277 16.7048 2.70043C15.8341 2.25606 14.8704 2.02441 13.8928 2.02449C10.6608 2.02449 8.00297 4.48871 7.69453 7.63871C4.17703 7.82574 1.35844 10.7067 1.3125 14.2832C1.26328 18.0075 4.24594 21.0656 7.97015 21.1148C8.2589 21.1181 8.54437 21.0984 8.82328 21.0656C10.2637 24.1007 13.3514 26.2007 16.9345 26.2007C19.0969 26.2007 21.0787 25.4362 22.6275 24.1631C23.812 25.0392 25.2722 25.5642 26.8603 25.5642C30.1153 25.5642 32.8552 23.3789 33.7083 20.3995C34.2464 20.5767 34.8173 20.6784 35.4145 20.6784C38.407 20.6784 40.8352 18.2536 40.8352 15.2578C40.8319 12.2653 38.4037 9.84043 35.4112 9.84043Z" fill="#E3EBEE"/>
<path d="M38.5941 10.874C39.8213 12.1143 38.955 14.9592 38.1084 15.8845C36.4481 17.7056 33.3966 17.279 32.1727 17.0165C31.8413 16.9443 31.7888 16.9706 31.6805 17.0362C31.5853 17.0953 31.5394 17.1904 31.4344 17.4136C31.0406 18.2634 30.0234 19.9106 27.8742 20.5734C25.6364 21.2657 23.5233 20.2125 22.5356 19.5825C22.1616 19.3429 22.1452 19.3396 21.9745 19.3396C21.8039 19.3396 21.6333 19.4676 21.4298 19.6284C20.5373 20.3306 18.4964 21.5709 15.3497 21.3904C12.2653 21.2132 10.5 19.3101 9.89625 18.3356C9.78141 18.1486 9.65344 17.9911 9.51234 17.9746C9.34828 17.9582 9.16453 18.1289 9.02344 18.2634C7.71094 19.5431 3.58313 19.9237 2.21156 17.7482C3.60281 19.9828 5.75531 21.0886 7.96359 21.1148C8.25234 21.1181 8.53781 21.0984 8.81672 21.0656C10.2572 24.1007 13.3448 26.2007 16.928 26.2007C19.0903 26.2007 21.0722 25.4362 22.6209 24.1631C23.8055 25.0392 25.2656 25.5642 26.8538 25.5642C30.1087 25.5642 32.8486 23.3789 33.7017 20.3995C34.2398 20.5767 34.8108 20.6784 35.408 20.6784C38.4005 20.6784 40.8286 18.2536 40.8286 15.2578C40.8319 13.6631 40.028 11.865 38.5941 10.874Z" fill="#B9CDD2"/>
<path d="M11.684 29.0325C11.6328 29.0071 11.5793 28.9958 11.5236 29.0014C11.2052 29.0297 9.54151 30.9137 9.105 32.2743C8.8088 33.1993 9.16068 34.2629 9.89117 34.6391C10.2427 34.8196 10.6362 34.8159 10.9855 34.6288C11.3349 34.4416 11.6116 34.0863 11.7552 33.6406C12.0804 32.6138 12.1717 29.2871 11.684 29.0325ZM14.4144 35.6886C14.3632 35.6603 14.3075 35.649 14.2518 35.6547C13.9333 35.683 12.2697 37.5669 11.8332 38.9304C11.537 39.8554 11.8889 40.919 12.6194 41.2952C12.9709 41.4757 13.3644 41.472 13.7137 41.2848C14.0631 41.0977 14.3398 40.7424 14.4834 40.2967C14.813 39.267 14.9021 35.9404 14.4144 35.6886ZM19.9042 30.2037C19.853 30.1782 19.7995 30.1669 19.7438 30.1725C19.4253 30.2008 17.7617 32.0848 17.3252 33.4454C17.029 34.3732 17.3809 35.434 18.1114 35.8103C18.8419 36.1865 19.677 35.7395 19.9732 34.8117C20.3028 33.7849 20.3919 30.4582 19.9042 30.2037ZM22.9308 36.26C22.8796 36.2346 22.8261 36.2233 22.7704 36.2289C22.452 36.2572 20.7861 38.1412 20.3496 39.5018C20.0534 40.4268 20.4053 41.4904 21.1358 41.8666C21.8662 42.2429 22.7036 41.7959 22.9998 40.8681C23.3294 39.8412 23.4185 36.5146 22.9308 36.26ZM27.6611 30.4865C27.6099 30.4611 27.5542 30.4498 27.4986 30.4554C27.1801 30.4837 25.5142 32.3677 25.0777 33.7283C24.7815 34.6561 25.1334 35.7169 25.8639 36.0931C26.5944 36.4694 27.4295 36.0224 27.7257 35.0946C28.0576 34.0649 28.1466 30.7383 27.6611 30.4865Z" fill="#70B2E2"/>
</svg>
