<svg width="30" height="28" viewBox="0 0 30 28" fill="none" xmlns="http://www.w3.org/2000/svg">
<path d="M16.9227 1.13193L29.7025 23.701C29.8974 24.0451 30 24.4355 30 24.8329C30 25.2303 29.8974 25.6207 29.7026 25.9648C29.5077 26.309 29.2274 26.5948 28.8899 26.7935C28.5524 26.9922 28.1695 27.0968 27.7798 27.0968H2.2202C1.83047 27.0968 1.44761 26.9922 1.11009 26.7935C0.772578 26.5948 0.492305 26.309 0.297444 25.9648C0.102582 25.6207 -2.47521e-06 25.2303 0 24.8329C2.4753e-06 24.4355 0.102592 24.0451 0.297458 23.701L13.0773 1.13193C13.9313 -0.377308 16.0672 -0.377308 16.9227 1.13193ZM15 19.0194C14.6074 19.0194 14.2309 19.1784 13.9534 19.4614C13.6758 19.7444 13.5198 20.1283 13.5198 20.5286C13.5198 20.9289 13.6758 21.3127 13.9534 21.5958C14.2309 21.8788 14.6074 22.0378 15 22.0378C15.3926 22.0378 15.7691 21.8788 16.0466 21.5958C16.3242 21.3127 16.4802 20.9289 16.4802 20.5286C16.4802 20.1283 16.3242 19.7444 16.0466 19.4614C15.7691 19.1784 15.3926 19.0194 15 19.0194ZM15 8.45473C14.6375 8.45477 14.2875 8.59049 14.0166 8.83613C13.7457 9.08177 13.5726 9.42026 13.5302 9.78738L13.5198 9.96396V16.0009C13.5202 16.3856 13.6647 16.7556 13.9237 17.0353C14.1827 17.315 14.5366 17.4833 14.9133 17.5059C15.2899 17.5284 15.6607 17.4035 15.95 17.1566C16.2393 16.9097 16.4252 16.5595 16.4698 16.1775L16.4802 16.0009V9.96396C16.4802 9.56369 16.3242 9.17981 16.0466 8.89677C15.7691 8.61373 15.3926 8.45473 15 8.45473Z" fill="#FF3737"/>
</svg>
