<svg width="34" height="34" viewBox="0 0 34 34" fill="none" xmlns="http://www.w3.org/2000/svg">
<path fill-rule="evenodd" clip-rule="evenodd" d="M16.9764 1.21264L17.9465 0.485058C17.8336 0.334452 17.6871 0.212213 17.5187 0.128022C17.3503 0.0438311 17.1647 0 16.9764 0C16.7881 0 16.6025 0.0438311 16.4341 0.128022C16.2657 0.212213 16.1192 0.334452 16.0062 0.485058L16.9764 1.21264ZM16.9764 1.21264L17.9465 0.485058L17.949 0.489908L17.9562 0.497184L17.9805 0.531138L18.0751 0.657253L18.4268 1.13746C20.1946 3.56981 21.8748 6.0646 23.4643 8.61705C24.8419 10.8362 26.2341 13.2736 27.2867 15.551C28.3174 17.7822 29.1033 20.0329 29.1033 21.8276C29.1033 25.0437 27.8256 28.1281 25.5514 30.4023C23.2772 32.6764 20.1926 33.954 16.9764 33.954C13.7601 33.954 10.6756 32.6764 8.4014 30.4023C6.12717 28.1281 4.84952 25.0437 4.84952 21.8276C4.84952 20.0329 5.63534 17.7822 6.66855 15.551C7.71874 13.2712 9.1109 10.8362 10.4885 8.61463C12.1833 5.89631 13.981 3.24354 15.8777 0.662104L15.9723 0.533563L15.9965 0.499609L16.0038 0.492334L16.0062 0.485058L16.9764 1.21264Z" fill="#8FBFFA"/>
<path fill-rule="evenodd" clip-rule="evenodd" d="M0.531982 0.533184C0.191337 0.874241 0 1.33656 0 1.81859C0 2.30061 0.191337 2.76293 0.531982 3.10399L30.8492 33.4201C31.0157 33.5988 31.2165 33.7421 31.4397 33.8416C31.6628 33.941 31.9037 33.9944 32.1479 33.9988C32.3921 34.0031 32.6348 33.9581 32.8613 33.8666C33.0878 33.7752 33.2935 33.639 33.4662 33.4663C33.639 33.2935 33.7751 33.0878 33.8666 32.8613C33.9581 32.6348 34.0031 32.3922 33.9987 32.148C33.9944 31.9037 33.941 31.6629 33.8416 31.4398C33.7421 31.2166 33.5988 31.0158 33.4201 30.8493L3.10288 0.533184C2.76181 0.192551 2.29948 0.0012207 1.81743 0.0012207C1.33539 0.0012207 0.873051 0.192551 0.531982 0.533184Z" fill="#2859C5"/>
</svg>
