<svg width="30" height="35" viewBox="0 0 30 35" fill="none" xmlns="http://www.w3.org/2000/svg">
<path fill-rule="evenodd" clip-rule="evenodd" d="M18.2145 0.527588C11.5502 0.527588 9.00441 5.75716 8.58655 8.47895C8.55547 8.68245 8.5748 8.89126 8.64256 9.08397C8.71032 9.27669 8.82407 9.44638 8.97214 9.57564C9.12022 9.7049 9.29729 9.78909 9.48522 9.81958C9.67314 9.85006 9.86515 9.82575 10.0416 9.74912C11.2459 9.2257 12.1802 9.13497 12.8916 9.2699C13.588 9.4025 14.1473 9.76773 14.6059 10.3191C15.5595 11.4706 16.0716 13.4596 16.0716 15.6487C16.0716 18.3844 13.4466 21.4645 9.64299 21.4645C7.80654 21.4645 5.95508 20.4107 5.2715 18.6799C5.18875 18.4691 5.05051 18.2896 4.87413 18.1638C4.69776 18.0381 4.49109 17.9716 4.28007 17.9729C4.06905 17.9741 3.86306 18.043 3.68795 18.1708C3.51284 18.2987 3.3764 18.4798 3.29576 18.6915C2.84575 19.8686 1.89217 20.8015 0.767153 21.1644C0.545748 21.2356 0.351453 21.3825 0.213214 21.5833C0.0749756 21.7841 0.000190361 22.028 0 22.2787L0 30.8419C0 31.1504 0.112884 31.4462 0.313818 31.6644C0.514753 31.8825 0.787279 32.005 1.07144 32.005H28.929C29.2131 32.005 29.4857 31.8825 29.6866 31.6644C29.8875 31.4462 30.0004 31.1504 30.0004 30.8419V8.66971C30.0004 8.48879 29.9615 8.31036 29.8868 8.14861C28.704 5.58268 24.7568 0.527588 18.2145 0.527588Z" fill="#8FBFFA"/>
<path fill-rule="evenodd" clip-rule="evenodd" d="M4.76602 27.1564C5.0821 27.1542 5.39178 27.2532 5.6563 27.4411C5.92082 27.6289 6.12844 27.8973 6.25318 28.2126C6.54033 28.9454 7.03533 29.5572 7.6632 29.9666C8.88893 30.7669 10.8861 30.7669 12.114 29.9666C12.7418 29.5569 13.235 28.9433 13.524 28.2126C13.6481 27.8992 13.8541 27.6323 14.1165 27.4447C14.3789 27.2571 14.6862 27.1571 15.0004 27.1571C15.3146 27.1571 15.6219 27.2571 15.8844 27.4447C16.1468 27.6323 16.3528 27.8992 16.4769 28.2126C16.7662 28.9454 17.259 29.5572 17.8869 29.9666C19.1148 30.7669 21.112 30.7669 22.3377 29.9666C22.9656 29.5572 23.4606 28.9431 23.7477 28.2126C23.8723 27.8972 24.0797 27.6287 24.3441 27.4407C24.6085 27.2527 24.9181 27.1534 25.2341 27.1554C25.5502 27.1574 25.8587 27.2605 26.1211 27.4519C26.3834 27.6432 26.588 27.9143 26.7092 28.2312C26.8919 28.7073 27.1699 29.1332 27.5232 29.478C27.8764 29.8229 28.296 30.078 28.7513 30.2249C28.9537 30.2902 29.1422 30.3982 29.3061 30.5427C29.4699 30.6872 29.606 30.8652 29.7065 31.0668C29.807 31.2683 29.8699 31.4894 29.8917 31.7173C29.9135 31.9453 29.8937 32.1757 29.8335 32.3953C29.7733 32.615 29.6738 32.8196 29.5407 32.9975C29.4077 33.1754 29.2436 33.3231 29.058 33.4322C28.8723 33.5413 28.6687 33.6096 28.4587 33.6333C28.2487 33.657 28.0365 33.6355 27.8342 33.5701C26.8568 33.2548 25.9628 32.691 25.2263 31.9254C24.8533 32.3207 24.4391 32.6674 23.992 32.9583C21.7484 34.4215 18.4783 34.4215 16.2347 32.9583C15.7877 32.6672 15.3735 32.3206 15.0004 31.9254C14.6274 32.3206 14.2131 32.6672 13.7661 32.9583C11.5225 34.4215 8.25249 34.4215 6.00889 32.9583C5.56183 32.6673 5.14759 32.3207 4.77459 31.9254C4.03813 32.691 3.1441 33.2548 2.1667 33.5701C1.96436 33.6355 1.75215 33.657 1.54217 33.6333C1.3322 33.6096 1.12857 33.5413 0.942917 33.4322C0.757264 33.3231 0.593221 33.1754 0.460154 32.9975C0.327088 32.8196 0.227604 32.615 0.167383 32.3953C0.107161 32.1757 0.087382 31.9453 0.109174 31.7173C0.130966 31.4894 0.193903 31.2683 0.29439 31.0668C0.394878 30.8652 0.530949 30.6872 0.694834 30.5427C0.858719 30.3982 1.04721 30.2902 1.24954 30.2249C1.70493 30.078 2.12447 29.8229 2.47771 29.478C2.83095 29.1332 3.10901 28.7073 3.29171 28.2312C3.41299 27.9146 3.6175 27.6438 3.87971 27.4527C4.14191 27.2615 4.45019 27.1585 4.76602 27.1564Z" fill="#2859C5"/>
</svg>
